<svg width="464" height="90" viewBox="0 0 464 90" fill="none" xmlns="http://www.w3.org/2000/svg">
<path d="M5.67436e-05 9.15527e-05H66.8161V14.4641H32.7681L41.2161 22.0161V89.6001H25.7281V25.6001L22.0161 14.4641H5.67436e-05V9.15527e-05ZM68.9421 9.15527e-05H115.918L130.894 21.8881V36.8641L119.118 49.0241L130.894 66.3041V89.6001H115.406V68.9921L103.758 51.9681H91.2141L84.4301 47.7441V89.6001H68.9421V9.15527e-05ZM84.4301 14.4641V37.5041H110.414L115.406 32.3841V24.9601L108.11 14.4641H84.4301ZM160.412 9.15527e-05H194.588V89.6001H179.1V51.3281H153.5V89.6001H138.268V22.9121L160.412 9.15527e-05ZM153.5 27.3921V36.8641H179.1V14.4641H166.044L153.5 27.3921ZM214.122 9.15527e-05H252.906L261.738 13.3121L251.242 23.5521L245.098 14.4641H220.138L217.834 16.8961V31.8721L221.674 37.5041H254.058L264.298 52.9921V78.7201L253.802 89.6001H209.13L201.578 78.8481L211.69 68.3521L216.682 75.1361H247.402L248.81 73.9841V55.5521L246.25 51.9681H213.866L202.346 34.8161V12.2881L214.122 9.15527e-05ZM266.04 9.15527e-05H332.856V14.4641H298.808L307.256 22.0161V89.6001H291.768V25.6001L288.056 14.4641H266.04V9.15527e-05ZM345.606 9.15527e-05H395.526V14.4641H351.494L349.19 17.0241V37.1201H378.758V51.5841H349.19V69.5041L352.902 75.1361H395.526V89.6001H345.222L333.702 72.4481V12.1601L345.606 9.15527e-05ZM413.652 9.15527e-05H452.436L461.268 13.3121L450.772 23.5521L444.628 14.4641H419.668L417.364 16.8961V31.8721L421.204 37.5041H453.588L463.828 52.9921V78.7201L453.332 89.6001H408.66L401.108 78.8481L411.22 68.3521L416.212 75.1361H446.932L448.34 73.9841V55.5521L445.78 51.9681H413.396L401.876 34.8161V12.2881L413.652 9.15527e-05Z" fill="white"/>
</svg>
